<?xml version="1.0" encoding="UTF-8"?>
<svg width="256" height="256" version="1.2" viewBox="0 0 48 48" xmlns="http://www.w3.org/2000/svg" xmlns:xlink="http://www.w3.org/1999/xlink">
 <defs>
  <linearGradient id="linearGradient21764" x1="18.491" x2="23.158" y1="11.485" y2="12.604" gradientTransform="translate(-12.394 -2.393)" gradientUnits="userSpaceOnUse">
   <stop stop-color="#dc4910" offset="0"/>
   <stop stop-color="#dc4910" stop-opacity="0" offset="1"/>
  </linearGradient>
  <radialGradient id="radialGradient27618" cx="17.072" cy="7.644" r="3.5118" gradientTransform="matrix(.5026 .57141 -.42371 .37268 -1.3205 -7.7303)" gradientUnits="userSpaceOnUse">
   <stop stop-color="#0c2e45" stop-opacity=".9" offset="0"/>
   <stop stop-color="#0c2e45" offset="1"/>
  </radialGradient>
  <radialGradient id="radialGradient27748" cx="17.397" cy="6.8643" r="3.0046" gradientTransform="matrix(.35462 .45217 -.81066 .63577 4.3444 -7.5884)" gradientUnits="userSpaceOnUse">
   <stop stop-color="#0c2e45" stop-opacity=".9" offset="0"/>
   <stop stop-color="#0c2e45" offset="1"/>
  </radialGradient>
 </defs>
 <g transform="matrix(4.6956 0 0 4.6956 1.1622 -1.0078)">
  <g>
   <path d="m8.1596 9.077c0.02124-0.02282-0.01729-0.04447-0.03059-0.03603-0.18768 0.1191-0.66516 0.15165-0.97894 0.07021-0.50742-0.1317-0.6536-0.3898-0.89272-0.63404-0.20107-0.20538-0.48684 0.05601-0.60804 0.23659-0.17468 0.26027-0.17516 0.82987 0.01648 0.94022 0.19163 0.11035 0.57582 0.25782 0.87115 0.24964 0.76933-0.02134 1.3298-0.46334 1.6227-0.82658z" fill="url(#linearGradient21764)"/>
   <path d="m5.439 3.2904c0.84882 0.01867 1.5907 0.71291 1.5792 1.5884-0.02064 1.5757-1.5036 2.4621-2.8773 2.4624-1.4469 3.02e-4 -2.9347-0.85103-2.941-2.4631-0.0092-2.355 1.9601-3.9334 3.9341-3.918 1.3467 0.01049 2.4237 0.55864 3.0561 1.3864 0.03977 0.05206 0.05177 0.08102-0.0073 0.0642-0.62256-0.54457-1.3935-0.85908-2.4252-0.86906-1.3915-0.01346-2.5272 0.77826-2.9068 1.2791-0.45772 0.60384-0.71397 1.0751-0.7126 1.8259 0.0014 0.75076 0.73733 1.6905 1.9515 1.6916 1.2141 0.0011 1.9185-0.77127 1.9096-1.4547-0.0089-0.68341-0.57422-0.98575-0.96113-0.98853-0.3192-0.0023-0.70126 0.09881-1.0121 0.38408-0.03043 0.02792-0.04974 0.05-0.07535 0.03565-0.02868-0.01607-0.01505-0.06957 0.03759-0.18644 0.2466-0.54752 0.78119-0.85256 1.4507-0.83783z" fill="url(#radialGradient27618)"/>
   <path d="m5.4388 2.8073c-1.1776-0.01775-2.2104 0.84806-2.2479 1.8952-0.01921 0.53586 0.38539 0.9175 1.1311 0.95192 0.54186 0.02501 0.75416-0.17839 0.894-0.27595 0.03324-0.02319 0.0561-0.03737 0.07931-0.01693 0.02286 0.02013 0.02636 0.0388-0.01092 0.07932-0.18368 0.19963-0.49573 0.4464-1.1245 0.47663-0.79512 0.03824-1.6011-0.52272-1.5983-1.3968 0.0044-1.3843 1.4935-2.516 3.0914-2.5144 1.7256 0.0017 2.9163 1.104 2.9178 2.7187 0.0013 1.3758-0.69375 2.3608-1.1372 2.7976-1.0408 1.0251-1.5485 1.025-1.6346 1.5641-0.02282 0.14287 0.07385 0.41097 0.24535 0.54304 0.0581 0.04474 0.2479 0.18278 0.48262 0.24281 0.03121 8e-3 0.02471 0.03161 4.67e-4 0.03206-0.76053-8.77e-4 -1.4513-0.43917-1.4433-1.082 8e-3 -0.64285 0.62503-0.99983 1.0213-1.3318s1.5311-1.1965 1.5189-2.5906c-0.0122-1.3941-1.1292-2.077-2.1855-2.0929z" fill="url(#radialGradient27748)"/>
  </g>
  <g transform="translate(-18.212 -11.555)" stroke="#f00">
   <path d="m22.962 20.075c-0.44463-0.05094-0.77665-0.09227-1.3329-0.32256-0.47273-0.19571-0.98633-0.54924-1.2945-0.94604-0.05445-0.07011-0.01859-0.09768 0.05463-0.04601 0.33068 0.23339 0.71984 0.4345 1.4534 0.53456 0.42404 0.05784 1.123 0.06561 1.7203-0.12996-0.22227 0.20402-0.55028 0.63071-0.60099 0.91z" fill="#0c2e45" stroke="none"/>
  </g>
 </g>
</svg>
